<svg width="36" height="36" viewBox="0 0 36 36" fill="none" xmlns="http://www.w3.org/2000/svg">
    <path fill-rule="evenodd" clip-rule="evenodd" d="M3.375 18C3.375 9.92555 9.92555 3.375 18 3.375C26.0744 3.375 32.625 9.92555 32.625 18C32.625 26.0744 26.0744 32.625 18 32.625C9.92555 32.625 3.375 26.0744 3.375 18ZM18 5.625C11.1682 5.625 5.625 11.1682 5.625 18C5.625 24.8318 11.1682 30.375 18 30.375C24.8318 30.375 30.375 24.8318 30.375 18C30.375 11.1682 24.8318 5.625 18 5.625Z" fill="black"/>
    <path fill-rule="evenodd" clip-rule="evenodd" d="M9 14.625C9 14.0037 9.50368 13.5 10.125 13.5H25.875C26.4963 13.5 27 14.0037 27 14.625C27 15.2463 26.4963 15.75 25.875 15.75H10.125C9.50368 15.75 9 15.2463 9 14.625ZM11.25 19.125C11.25 18.5037 11.7537 18 12.375 18H23.625C24.2463 18 24.75 18.5037 24.75 19.125C24.75 19.7463 24.2463 20.25 23.625 20.25H12.375C11.7537 20.25 11.25 19.7463 11.25 19.125ZM14.625 23.625C14.625 23.0037 15.1287 22.5 15.75 22.5H20.25C20.8713 22.5 21.375 23.0037 21.375 23.625C21.375 24.2463 20.8713 24.75 20.25 24.75H15.75C15.1287 24.75 14.625 24.2463 14.625 23.625Z" fill="black"/>
</svg>